<svg xmlns="http://www.w3.org/2000/svg" width="832" height="328" viewBox="0 0 832 328" data-generated-from="jsonl" data-authority="events.jsonl">
<defs><marker id="arrow" viewBox="0 0 10 10" refX="9" refY="5" markerWidth="7" markerHeight="7" orient="auto-start-reverse"><path d="M 0 0 L 10 5 L 0 10 z" fill="#334155"/></marker></defs>
<metadata id="jsonl-diagram-provenance">{&quot;authority&quot;: &quot;events.jsonl&quot;, &quot;diagramId&quot;: &quot;erd&quot;, &quot;diagramKind&quot;: &quot;erd&quot;, &quot;dvmSha256&quot;: &quot;ecc426f7c91e50894c14ccc4f57ad4ee2aeed4c8d0cbec24e7047fdcccae54db&quot;, &quot;edgeIds&quot;: [&quot;r0&quot;, &quot;r1&quot;, &quot;r2&quot;, &quot;r3&quot;, &quot;r4&quot;], &quot;eventsSha256&quot;: &quot;c2e59993cfa3303766ada1302a77036f9b598976c4f0c0300f042777c7185143&quot;, &quot;generatedFrom&quot;: &quot;jsonl&quot;, &quot;groupIds&quot;: [], &quot;nodeIds&quot;: [&quot;diagram&quot;, &quot;event&quot;, &quot;node&quot;, &quot;edge&quot;, &quot;proof&quot;], &quot;schema&quot;: &quot;SvgProvenance.v1&quot;}</metadata>
<rect width="100%" height="100%" fill="#f8fafc"/>
<text x="38" y="36" font-size="20" font-weight="800" fill="#0f172a">ERD: Diagram Domain Model</text>
<text x="38" y="58" font-size="11" fill="#64748b">generated from JSONL · artifact is not authority</text>
<line x1="133.0" y1="124.0" x2="319.0" y2="124.0" stroke="#334155" stroke-width="1.4" marker-end="url(#arrow)"/><text x="226.0" y="118.0" text-anchor="middle" font-size="10" fill="#64748b">1:N</text><line x1="133.0" y1="124.0" x2="505.0" y2="124.0" stroke="#334155" stroke-width="1.4" marker-end="url(#arrow)"/><text x="319.0" y="118.0" text-anchor="middle" font-size="10" fill="#64748b">1:N</text><line x1="505.0" y1="124.0" x2="691.0" y2="124.0" stroke="#334155" stroke-width="1.4" marker-end="url(#arrow)"/><text x="598.0" y="118.0" text-anchor="middle" font-size="10" fill="#64748b">1:N source</text><line x1="505.0" y1="124.0" x2="691.0" y2="124.0" stroke="#334155" stroke-width="1.4" marker-end="url(#arrow)"/><text x="598.0" y="118.0" text-anchor="middle" font-size="10" fill="#64748b">1:N target</text><line x1="133.0" y1="124.0" x2="133.0" y2="228.0" stroke="#334155" stroke-width="1.4" marker-end="url(#arrow)"/><text x="133.0" y="170.0" text-anchor="middle" font-size="10" fill="#64748b">1:1</text><rect x="64.0" y="96.0" width="138.0" height="56.0" rx="10" fill="#ffffff" stroke="#334155"/><rect x="64.0" y="96.0" width="138.0" height="30" rx="10" fill="#eff6ff" stroke="#334155"/><text x="133.0" y="116.0" text-anchor="middle" font-size="12" fill="#0f172a"><tspan x="133.0" dy="0.0">Diagram</tspan></text><text x="76.0" y="142.0" font-size="11" fill="#0f172a">id <tspan fill="#64748b">PK</tspan></text><text x="76.0" y="158.0" font-size="11" fill="#0f172a">title <tspan fill="#64748b"></tspan></text><text x="76.0" y="174.0" font-size="11" fill="#0f172a">kind <tspan fill="#64748b"></tspan></text><rect x="250.0" y="96.0" width="138.0" height="56.0" rx="10" fill="#ffffff" stroke="#334155"/><rect x="250.0" y="96.0" width="138.0" height="30" rx="10" fill="#eff6ff" stroke="#334155"/><text x="319.0" y="116.0" text-anchor="middle" font-size="12" fill="#0f172a"><tspan x="319.0" dy="0.0">Event</tspan></text><text x="262.0" y="142.0" font-size="11" fill="#0f172a">id <tspan fill="#64748b">PK</tspan></text><text x="262.0" y="158.0" font-size="11" fill="#0f172a">diagram_id <tspan fill="#64748b">FK</tspan></text><text x="262.0" y="174.0" font-size="11" fill="#0f172a">op <tspan fill="#64748b"></tspan></text><rect x="436.0" y="96.0" width="138.0" height="56.0" rx="10" fill="#ffffff" stroke="#334155"/><rect x="436.0" y="96.0" width="138.0" height="30" rx="10" fill="#eff6ff" stroke="#334155"/><text x="505.0" y="116.0" text-anchor="middle" font-size="12" fill="#0f172a"><tspan x="505.0" dy="0.0">Node</tspan></text><text x="448.0" y="142.0" font-size="11" fill="#0f172a">id <tspan fill="#64748b">PK</tspan></text><text x="448.0" y="158.0" font-size="11" fill="#0f172a">diagram_id <tspan fill="#64748b">FK</tspan></text><text x="448.0" y="174.0" font-size="11" fill="#0f172a">kind <tspan fill="#64748b"></tspan></text><rect x="622.0" y="96.0" width="138.0" height="56.0" rx="10" fill="#ffffff" stroke="#334155"/><rect x="622.0" y="96.0" width="138.0" height="30" rx="10" fill="#eff6ff" stroke="#334155"/><text x="691.0" y="116.0" text-anchor="middle" font-size="12" fill="#0f172a"><tspan x="691.0" dy="0.0">Edge</tspan></text><text x="634.0" y="142.0" font-size="11" fill="#0f172a">id <tspan fill="#64748b">PK</tspan></text><text x="634.0" y="158.0" font-size="11" fill="#0f172a">source_id <tspan fill="#64748b">FK</tspan></text><text x="634.0" y="174.0" font-size="11" fill="#0f172a">target_id <tspan fill="#64748b">FK</tspan></text><rect x="64.0" y="200.0" width="138.0" height="56.0" rx="10" fill="#ffffff" stroke="#334155"/><rect x="64.0" y="200.0" width="138.0" height="30" rx="10" fill="#eff6ff" stroke="#334155"/><text x="133.0" y="220.0" text-anchor="middle" font-size="12" fill="#0f172a"><tspan x="133.0" dy="0.0">Proof</tspan></text><text x="76.0" y="246.0" font-size="11" fill="#0f172a">id <tspan fill="#64748b">PK</tspan></text><text x="76.0" y="262.0" font-size="11" fill="#0f172a">input_hash <tspan fill="#64748b"></tspan></text><text x="76.0" y="278.0" font-size="11" fill="#0f172a">svg_hash <tspan fill="#64748b"></tspan></text>
</svg>
