<svg xmlns="http://www.w3.org/2000/svg" width="1801" height="526" viewBox="0 0 1801 526" data-generated-from="jsonl" data-authority="events.jsonl">
<defs><marker id="arrow" viewBox="0 0 10 10" refX="9" refY="5" markerWidth="7" markerHeight="7" orient="auto-start-reverse"><path d="M 0 0 L 10 5 L 0 10 z" fill="#334155"/></marker></defs>
<metadata id="jsonl-diagram-provenance">{&quot;authority&quot;: &quot;events.jsonl&quot;, &quot;diagramId&quot;: &quot;dense_dependency&quot;, &quot;diagramKind&quot;: &quot;dense&quot;, &quot;dvmSha256&quot;: &quot;09aee0c5d6b3e241f5d12db4711212e71345eed1fbc2f2f501d0f076e04c12c4&quot;, &quot;edgeIds&quot;: [&quot;d0&quot;, &quot;d1&quot;, &quot;d2&quot;, &quot;d3&quot;, &quot;d4&quot;, &quot;d5&quot;, &quot;d6&quot;, &quot;d7&quot;, &quot;d8&quot;, &quot;d9&quot;, &quot;d10&quot;, &quot;d11&quot;, &quot;d12&quot;, &quot;d13&quot;, &quot;d14&quot;, &quot;d15&quot;, &quot;d16&quot;, &quot;d17&quot;, &quot;d18&quot;, &quot;d19&quot;, &quot;d20&quot;], &quot;eventsSha256&quot;: &quot;86c3c3b49e0519825c2ad54146936f66ab70567c02736aa4a552eeeba8b1c3ff&quot;, &quot;generatedFrom&quot;: &quot;jsonl&quot;, &quot;groupIds&quot;: [], &quot;nodeIds&quot;: [&quot;events&quot;, &quot;schema&quot;, &quot;tokenizer&quot;, &quot;reducer&quot;, &quot;dvm&quot;, &quot;d2&quot;, &quot;graphviz&quot;, &quot;elk&quot;, &quot;svg&quot;, &quot;proof&quot;, &quot;preview&quot;, &quot;agent&quot;, &quot;ci&quot;, &quot;registry&quot;], &quot;schema&quot;: &quot;SvgProvenance.v1&quot;}</metadata>
<rect width="100%" height="100%" fill="#f8fafc"/>
<text x="38" y="36" font-size="20" font-weight="800" fill="#0f172a">Dense Dependency: Agent Factory Modules</text>
<text x="38" y="58" font-size="11" fill="#64748b">generated from JSONL · artifact is not authority</text>
<line x1="98.4" y1="426.9" x2="273.3" y2="319.9" stroke="#334155" stroke-width="1.4" marker-end="url(#arrow)"/><line x1="273.3" y1="319.9" x2="459.7" y2="283.3" stroke="#334155" stroke-width="1.4" marker-end="url(#arrow)"/><line x1="459.7" y1="283.3" x2="630.9" y2="254.2" stroke="#334155" stroke-width="1.4" marker-end="url(#arrow)"/><line x1="630.9" y1="254.2" x2="775.1" y2="240.5" stroke="#334155" stroke-width="1.4" marker-end="url(#arrow)"/><line x1="775.1" y1="240.5" x2="933.2" y2="158.0" stroke="#334155" stroke-width="1.4" marker-end="url(#arrow)"/><line x1="775.1" y1="240.5" x2="947.1" y2="75.5" stroke="#334155" stroke-width="1.4" marker-end="url(#arrow)"/><line x1="775.1" y1="240.5" x2="933.2" y2="240.5" stroke="#334155" stroke-width="1.4" marker-end="url(#arrow)"/><line x1="933.2" y1="158.0" x2="1091.3" y2="199.2" stroke="#334155" stroke-width="1.4" marker-end="url(#arrow)"/><line x1="947.1" y1="75.5" x2="1091.3" y2="199.2" stroke="#334155" stroke-width="1.4" marker-end="url(#arrow)"/><line x1="933.2" y1="240.5" x2="1091.3" y2="199.2" stroke="#334155" stroke-width="1.4" marker-end="url(#arrow)"/><line x1="1091.3" y1="199.2" x2="1229.6" y2="310.8" stroke="#334155" stroke-width="1.4" marker-end="url(#arrow)"/><line x1="1229.6" y1="310.8" x2="1391.7" y2="356.6" stroke="#334155" stroke-width="1.4" marker-end="url(#arrow)"/><line x1="1539.8" y1="356.6" x2="98.4" y2="426.9" stroke="#334155" stroke-width="1.4" marker-end="url(#arrow)"/><line x1="1681.0" y1="356.6" x2="1229.6" y2="310.8" stroke="#334155" stroke-width="1.4" marker-end="url(#arrow)"/><line x1="106.8" y1="174.8" x2="273.3" y2="319.9" stroke="#334155" stroke-width="1.4" marker-end="url(#arrow)"/><line x1="106.8" y1="174.8" x2="1539.8" y2="356.6" stroke="#334155" stroke-width="1.4" marker-end="url(#arrow)"/><line x1="273.3" y1="319.9" x2="1229.6" y2="310.8" stroke="#334155" stroke-width="1.4" marker-end="url(#arrow)"/><line x1="775.1" y1="240.5" x2="1229.6" y2="310.8" stroke="#334155" stroke-width="1.4" marker-end="url(#arrow)"/><line x1="98.4" y1="426.9" x2="1681.0" y2="356.6" stroke="#334155" stroke-width="1.4" marker-end="url(#arrow)"/><line x1="1391.7" y1="356.6" x2="1539.8" y2="356.6" stroke="#334155" stroke-width="1.4" marker-end="url(#arrow)"/><line x1="1539.8" y1="356.6" x2="1681.0" y2="356.6" stroke="#334155" stroke-width="1.4" marker-end="url(#arrow)"/><rect x="48.0" y="399.4" width="100.8" height="55.0" rx="14" fill="#eef2ff" stroke="#334155" stroke-width="1.4"/><text x="98.4" y="430.9" text-anchor="middle" font-size="12" fill="#0f172a"><tspan x="98.4" dy="0.0">Events</tspan></text><rect x="217.6" y="292.4" width="111.5" height="55.0" rx="14" fill="#eef2ff" stroke="#334155" stroke-width="1.4"/><text x="273.3" y="323.9" text-anchor="middle" font-size="12" fill="#0f172a"><tspan x="273.3" dy="0.0">Schema</tspan></text><rect x="394.1" y="255.8" width="131.4" height="55.0" rx="14" fill="#eef2ff" stroke="#334155" stroke-width="1.4"/><text x="459.7" y="287.3" text-anchor="middle" font-size="12" fill="#0f172a"><tspan x="459.7" dy="0.0">Tokenizer</tspan></text><rect x="572.8" y="226.8" width="116.1" height="55.0" rx="14" fill="#eef2ff" stroke="#334155" stroke-width="1.4"/><text x="630.9" y="258.2" text-anchor="middle" font-size="12" fill="#0f172a"><tspan x="630.9" dy="0.0">Reducer</tspan></text><rect x="727.1" y="213.0" width="96.0" height="55.0" rx="14" fill="#eef2ff" stroke="#334155" stroke-width="1.4"/><text x="775.1" y="244.5" text-anchor="middle" font-size="12" fill="#0f172a"><tspan x="775.1" dy="0.0">Dvm</tspan></text><rect x="885.2" y="130.5" width="96.0" height="55.0" rx="14" fill="#eef2ff" stroke="#334155" stroke-width="1.4"/><text x="933.2" y="162.0" text-anchor="middle" font-size="12" fill="#0f172a"><tspan x="933.2" dy="0.0">D2</tspan></text><rect x="885.2" y="48.0" width="123.8" height="55.0" rx="14" fill="#eef2ff" stroke="#334155" stroke-width="1.4"/><text x="947.1" y="79.5" text-anchor="middle" font-size="12" fill="#0f172a"><tspan x="947.1" dy="0.0">Graphviz</tspan></text><rect x="885.2" y="213.0" width="96.0" height="55.0" rx="14" fill="#eef2ff" stroke="#334155" stroke-width="1.4"/><text x="933.2" y="244.5" text-anchor="middle" font-size="12" fill="#0f172a"><tspan x="933.2" dy="0.0">Elk</tspan></text><rect x="1043.3" y="171.8" width="96.0" height="55.0" rx="14" fill="#eef2ff" stroke="#334155" stroke-width="1.4"/><text x="1091.3" y="203.2" text-anchor="middle" font-size="12" fill="#0f172a"><tspan x="1091.3" dy="0.0">Svg</tspan></text><rect x="1181.6" y="283.3" width="96.0" height="55.0" rx="14" fill="#eef2ff" stroke="#334155" stroke-width="1.4"/><text x="1229.6" y="314.8" text-anchor="middle" font-size="12" fill="#0f172a"><tspan x="1229.6" dy="0.0">Proof</tspan></text><rect x="1335.1" y="329.1" width="113.1" height="55.0" rx="14" fill="#eef2ff" stroke="#334155" stroke-width="1.4"/><text x="1391.7" y="360.6" text-anchor="middle" font-size="12" fill="#0f172a"><tspan x="1391.7" dy="0.0">Preview</tspan></text><rect x="1491.8" y="329.1" width="96.0" height="55.0" rx="14" fill="#eef2ff" stroke="#334155" stroke-width="1.4"/><text x="1539.8" y="360.6" text-anchor="middle" font-size="12" fill="#0f172a"><tspan x="1539.8" dy="0.0">Agent</tspan></text><rect x="1633.0" y="329.1" width="96.0" height="55.0" rx="14" fill="#eef2ff" stroke="#334155" stroke-width="1.4"/><text x="1681.0" y="360.6" text-anchor="middle" font-size="12" fill="#0f172a"><tspan x="1681.0" dy="0.0">Ci</tspan></text><rect x="48.0" y="147.3" width="117.6" height="55.0" rx="14" fill="#eef2ff" stroke="#334155" stroke-width="1.4"/><text x="106.8" y="178.8" text-anchor="middle" font-size="12" fill="#0f172a"><tspan x="106.8" dy="0.0">Registry</tspan></text>
</svg>
