<svg xmlns="http://www.w3.org/2000/svg" width="1040" height="538" viewBox="0 0 1040 538" data-generated-from="jsonl" data-authority="events.jsonl">
<defs><marker id="arrow" viewBox="0 0 10 10" refX="9" refY="5" markerWidth="7" markerHeight="7" orient="auto-start-reverse"><path d="M 0 0 L 10 5 L 0 10 z" fill="#334155"/></marker></defs>
<metadata id="jsonl-diagram-provenance">{&quot;authority&quot;: &quot;events.jsonl&quot;, &quot;diagramId&quot;: &quot;sequence&quot;, &quot;diagramKind&quot;: &quot;sequence&quot;, &quot;dvmSha256&quot;: &quot;50a0b234078e6b4f26fb2fc819a43b06ba92abcc09fef3c98b782ec19e22b052&quot;, &quot;edgeIds&quot;: [&quot;m0&quot;, &quot;m1&quot;, &quot;m2&quot;, &quot;m3&quot;, &quot;m4&quot;, &quot;m5&quot;, &quot;m6&quot;, &quot;m7&quot;], &quot;eventsSha256&quot;: &quot;74bc8ce029ee6c2c4e9c9f5b30016e4c4510b0c520e9463feee890ec412283f5&quot;, &quot;generatedFrom&quot;: &quot;jsonl&quot;, &quot;groupIds&quot;: [], &quot;nodeIds&quot;: [&quot;agent&quot;, &quot;repo&quot;, &quot;compiler&quot;, &quot;layout&quot;, &quot;svg&quot;, &quot;gate&quot;], &quot;schema&quot;: &quot;SvgProvenance.v1&quot;}</metadata>
<rect width="100%" height="100%" fill="#f8fafc"/>
<text x="38" y="36" font-size="20" font-weight="800" fill="#0f172a">Sequence: Agent Builds Diagram</text>
<text x="38" y="58" font-size="11" fill="#64748b">generated from JSONL · artifact is not authority</text>
<rect x="22" y="70" width="116" height="42" rx="12" fill="#ffffff" stroke="#334155"/><text x="80.0" y="96.0" text-anchor="middle" font-size="12" fill="#0f172a"><tspan x="80.0" dy="0.0">Agent</tspan></text><line x1="80" y1="112" x2="80" y2="478" stroke="#64748b" stroke-dasharray="5 6"/><rect x="182" y="70" width="116" height="42" rx="12" fill="#ffffff" stroke="#334155"/><text x="240.0" y="96.0" text-anchor="middle" font-size="12" fill="#0f172a"><tspan x="240.0" dy="0.0">JSONL Repo</tspan></text><line x1="240" y1="112" x2="240" y2="478" stroke="#64748b" stroke-dasharray="5 6"/><rect x="342" y="70" width="116" height="42" rx="12" fill="#ffffff" stroke="#334155"/><text x="400.0" y="96.0" text-anchor="middle" font-size="12" fill="#0f172a"><tspan x="400.0" dy="0.0">f(jsonl)</tspan></text><line x1="400" y1="112" x2="400" y2="478" stroke="#64748b" stroke-dasharray="5 6"/><rect x="502" y="70" width="116" height="42" rx="12" fill="#ffffff" stroke="#334155"/><text x="560.0" y="96.0" text-anchor="middle" font-size="12" fill="#0f172a"><tspan x="560.0" dy="0.0">Layout Solver</tspan></text><line x1="560" y1="112" x2="560" y2="478" stroke="#64748b" stroke-dasharray="5 6"/><rect x="662" y="70" width="116" height="42" rx="12" fill="#ffffff" stroke="#334155"/><text x="720.0" y="96.0" text-anchor="middle" font-size="12" fill="#0f172a"><tspan x="720.0" dy="0.0">SVG Renderer</tspan></text><line x1="720" y1="112" x2="720" y2="478" stroke="#64748b" stroke-dasharray="5 6"/><rect x="822" y="70" width="116" height="42" rx="12" fill="#ffffff" stroke="#334155"/><text x="880.0" y="96.0" text-anchor="middle" font-size="12" fill="#0f172a"><tspan x="880.0" dy="0.0">Proof Gate</tspan></text><line x1="880" y1="112" x2="880" y2="478" stroke="#64748b" stroke-dasharray="5 6"/><line x1="80.0" y1="150.0" x2="240.0" y2="150.0" stroke="#334155" stroke-width="1.4" marker-end="url(#arrow)"/><text x="160.0" y="144.0" text-anchor="middle" font-size="10" fill="#64748b">append events</text><line x1="240.0" y1="194.0" x2="400.0" y2="194.0" stroke="#334155" stroke-width="1.4" marker-end="url(#arrow)"/><text x="320.0" y="188.0" text-anchor="middle" font-size="10" fill="#64748b">read events</text><path d="M 400 238 C 470 238 470 266 400 266" fill="none" stroke="#334155" marker-end="url(#arrow)"/><line x1="400.0" y1="282.0" x2="560.0" y2="282.0" stroke="#334155" stroke-width="1.4" marker-end="url(#arrow)"/><text x="480.0" y="276.0" text-anchor="middle" font-size="10" fill="#64748b">layout request</text><line x1="560.0" y1="326.0" x2="400.0" y2="326.0" stroke="#334155" stroke-width="1.4" marker-end="url(#arrow)"/><text x="480.0" y="320.0" text-anchor="middle" font-size="10" fill="#64748b">coords</text><line x1="400.0" y1="370.0" x2="720.0" y2="370.0" stroke="#334155" stroke-width="1.4" marker-end="url(#arrow)"/><text x="560.0" y="364.0" text-anchor="middle" font-size="10" fill="#64748b">DVM + tokens</text><line x1="720.0" y1="414.0" x2="880.0" y2="414.0" stroke="#334155" stroke-width="1.4" marker-end="url(#arrow)"/><text x="800.0" y="408.0" text-anchor="middle" font-size="10" fill="#64748b">generated SVG</text><line x1="880.0" y1="458.0" x2="80.0" y2="458.0" stroke="#334155" stroke-width="1.4" marker-end="url(#arrow)"/><text x="480.0" y="452.0" text-anchor="middle" font-size="10" fill="#64748b">proof OK</text>
</svg>
