<svg xmlns="http://www.w3.org/2000/svg" width="827" height="545" viewBox="0 0 827 545" data-generated-from="jsonl" data-authority="events.jsonl">
<defs><marker id="arrow" viewBox="0 0 10 10" refX="9" refY="5" markerWidth="7" markerHeight="7" orient="auto-start-reverse"><path d="M 0 0 L 10 5 L 0 10 z" fill="#334155"/></marker></defs>
<metadata id="jsonl-diagram-provenance">{&quot;authority&quot;: &quot;events.jsonl&quot;, &quot;diagramId&quot;: &quot;mindmap&quot;, &quot;diagramKind&quot;: &quot;mindmap&quot;, &quot;dvmSha256&quot;: &quot;1532981cb0dbf05cac0e32e99f760f1edea8053908858a9c4723db8539a7ad7b&quot;, &quot;edgeIds&quot;: [&quot;mm0&quot;, &quot;mm1&quot;, &quot;mm2&quot;, &quot;mm3&quot;, &quot;mm4&quot;, &quot;mm5&quot;, &quot;mm6&quot;, &quot;mm7&quot;, &quot;mm8&quot;], &quot;eventsSha256&quot;: &quot;9226cae6a37f33a1371b364337d15b18b9d4a33222b7c9e0b41c08a0033d4cef&quot;, &quot;generatedFrom&quot;: &quot;jsonl&quot;, &quot;groupIds&quot;: [], &quot;nodeIds&quot;: [&quot;root&quot;, &quot;jsonl&quot;, &quot;repro&quot;, &quot;agent&quot;, &quot;dd&quot;, &quot;schema&quot;, &quot;proof&quot;, &quot;svg&quot;, &quot;ci&quot;, &quot;buyer&quot;], &quot;schema&quot;: &quot;SvgProvenance.v1&quot;}</metadata>
<rect width="100%" height="100%" fill="#f8fafc"/>
<text x="38" y="36" font-size="20" font-weight="800" fill="#0f172a">Mindmap: Diagram Asset Value</text>
<text x="38" y="58" font-size="11" fill="#64748b">generated from JSONL · artifact is not authority</text>
<line x1="430.0" y1="270.0" x2="690.0" y2="270.0" stroke="#334155" stroke-width="1.4" marker-end="url(#arrow)"/><line x1="430.0" y1="270.0" x2="629.2" y2="385.7" stroke="#334155" stroke-width="1.4" marker-end="url(#arrow)"/><line x1="430.0" y1="270.0" x2="475.1" y2="447.3" stroke="#334155" stroke-width="1.4" marker-end="url(#arrow)"/><line x1="430.0" y1="270.0" x2="300.0" y2="425.9" stroke="#334155" stroke-width="1.4" marker-end="url(#arrow)"/><line x1="690.0" y1="270.0" x2="185.7" y2="331.6" stroke="#334155" stroke-width="1.4" marker-end="url(#arrow)"/><line x1="629.2" y1="385.7" x2="185.7" y2="208.4" stroke="#334155" stroke-width="1.4" marker-end="url(#arrow)"/><line x1="475.1" y1="447.3" x2="300.0" y2="114.1" stroke="#334155" stroke-width="1.4" marker-end="url(#arrow)"/><line x1="475.1" y1="447.3" x2="475.1" y2="92.7" stroke="#334155" stroke-width="1.4" marker-end="url(#arrow)"/><line x1="300.0" y1="425.9" x2="629.2" y2="154.3" stroke="#334155" stroke-width="1.4" marker-end="url(#arrow)"/><rect x="360.0" y="238.0" width="140.0" height="64.0" rx="14" fill="#ffffff" stroke="#334155" stroke-width="1.4"/><text x="430.0" y="274.0" text-anchor="middle" font-size="12" fill="#0f172a"><tspan x="430.0" dy="0.0">Diagram Asset</tspan></text><rect x="625.0" y="244.0" width="130.0" height="52.0" rx="14" fill="#ffffff" stroke="#334155" stroke-width="1.4"/><text x="690.0" y="274.0" text-anchor="middle" font-size="12" fill="#0f172a"><tspan x="690.0" dy="0.0">JSONL Authority</tspan></text><rect x="564.2" y="359.7" width="130.0" height="52.0" rx="14" fill="#ffffff" stroke="#334155" stroke-width="1.4"/><text x="629.2" y="389.7" text-anchor="middle" font-size="12" fill="#0f172a"><tspan x="629.2" dy="0.0">Reproducible</tspan></text><rect x="410.1" y="421.3" width="130.0" height="52.0" rx="14" fill="#ffffff" stroke="#334155" stroke-width="1.4"/><text x="475.1" y="451.3" text-anchor="middle" font-size="12" fill="#0f172a"><tspan x="475.1" dy="0.0">Agent Friendly</tspan></text><rect x="235.0" y="399.9" width="130.0" height="52.0" rx="14" fill="#ffffff" stroke="#334155" stroke-width="1.4"/><text x="300.0" y="429.9" text-anchor="middle" font-size="12" fill="#0f172a"><tspan x="300.0" dy="0.0">DD Asset</tspan></text><rect x="120.7" y="305.6" width="130.0" height="52.0" rx="14" fill="#ffffff" stroke="#334155" stroke-width="1.4"/><text x="185.7" y="335.6" text-anchor="middle" font-size="12" fill="#0f172a"><tspan x="185.7" dy="0.0">schema</tspan></text><rect x="120.7" y="182.4" width="130.0" height="52.0" rx="14" fill="#ffffff" stroke="#334155" stroke-width="1.4"/><text x="185.7" y="212.4" text-anchor="middle" font-size="12" fill="#0f172a"><tspan x="185.7" dy="0.0">proof</tspan></text><rect x="235.0" y="88.1" width="130.0" height="52.0" rx="14" fill="#ffffff" stroke="#334155" stroke-width="1.4"/><text x="300.0" y="118.1" text-anchor="middle" font-size="12" fill="#0f172a"><tspan x="300.0" dy="0.0">single SVG</tspan></text><rect x="410.1" y="66.7" width="130.0" height="52.0" rx="14" fill="#ffffff" stroke="#334155" stroke-width="1.4"/><text x="475.1" y="96.7" text-anchor="middle" font-size="12" fill="#0f172a"><tspan x="475.1" dy="0.0">visual CI</tspan></text><rect x="564.2" y="128.3" width="130.0" height="52.0" rx="14" fill="#ffffff" stroke="#334155" stroke-width="1.4"/><text x="629.2" y="158.3" text-anchor="middle" font-size="12" fill="#0f172a"><tspan x="629.2" dy="0.0">buyer review</tspan></text>
</svg>
