<svg xmlns="http://www.w3.org/2000/svg" width="880" height="417" viewBox="0 0 880 417" data-generated-from="jsonl" data-authority="events.jsonl">
<defs><marker id="arrow" viewBox="0 0 10 10" refX="9" refY="5" markerWidth="7" markerHeight="7" orient="auto-start-reverse"><path d="M 0 0 L 10 5 L 0 10 z" fill="#334155"/></marker></defs>
<metadata id="jsonl-diagram-provenance">{&quot;authority&quot;: &quot;events.jsonl&quot;, &quot;diagramId&quot;: &quot;gantt&quot;, &quot;diagramKind&quot;: &quot;gantt&quot;, &quot;dvmSha256&quot;: &quot;32f335604fc109457a40f03748c67103733464d3ce4c29dcad771e23ad72abc2&quot;, &quot;edgeIds&quot;: [&quot;g0&quot;, &quot;g1&quot;, &quot;g2&quot;, &quot;g3&quot;, &quot;g4&quot;, &quot;g5&quot;, &quot;g6&quot;], &quot;eventsSha256&quot;: &quot;130310972ab3013fb278da6f97e36799da6f10f64c7d069f06d892bf9d40a691&quot;, &quot;generatedFrom&quot;: &quot;jsonl&quot;, &quot;groupIds&quot;: [&quot;core&quot;, &quot;render&quot;, &quot;qa&quot;, &quot;release&quot;], &quot;nodeIds&quot;: [&quot;schema&quot;, &quot;tokenizer&quot;, &quot;reducer&quot;, &quot;dvm&quot;, &quot;d2&quot;, &quot;tokens&quot;, &quot;svg&quot;, &quot;graphviz&quot;, &quot;elk&quot;, &quot;proof&quot;, &quot;preview&quot;, &quot;publish&quot;], &quot;schema&quot;: &quot;SvgProvenance.v1&quot;}</metadata>
<rect width="100%" height="100%" fill="#f8fafc"/>
<text x="38" y="36" font-size="20" font-weight="800" fill="#0f172a">Gantt: MVP Workplan</text>
<text x="38" y="58" font-size="11" fill="#64748b">generated from JSONL · artifact is not authority</text>
<line x1="190" y1="58" x2="830" y2="58" stroke="#cbd5e1"/><text x="190.0" y="50" font-size="10" fill="#64748b" text-anchor="middle">0</text><line x1="190.0" y1="62" x2="190.0" y2="382" stroke="#e2e8f0"/><text x="242.5" y="50" font-size="10" fill="#64748b" text-anchor="middle">1</text><line x1="242.5" y1="62" x2="242.5" y2="382" stroke="#e2e8f0"/><text x="295.0" y="50" font-size="10" fill="#64748b" text-anchor="middle">2</text><line x1="295.0" y1="62" x2="295.0" y2="382" stroke="#e2e8f0"/><text x="347.5" y="50" font-size="10" fill="#64748b" text-anchor="middle">3</text><line x1="347.5" y1="62" x2="347.5" y2="382" stroke="#e2e8f0"/><text x="400.0" y="50" font-size="10" fill="#64748b" text-anchor="middle">4</text><line x1="400.0" y1="62" x2="400.0" y2="382" stroke="#e2e8f0"/><text x="452.5" y="50" font-size="10" fill="#64748b" text-anchor="middle">5</text><line x1="452.5" y1="62" x2="452.5" y2="382" stroke="#e2e8f0"/><text x="505.0" y="50" font-size="10" fill="#64748b" text-anchor="middle">6</text><line x1="505.0" y1="62" x2="505.0" y2="382" stroke="#e2e8f0"/><text x="557.5" y="50" font-size="10" fill="#64748b" text-anchor="middle">7</text><line x1="557.5" y1="62" x2="557.5" y2="382" stroke="#e2e8f0"/><text x="610.0" y="50" font-size="10" fill="#64748b" text-anchor="middle">8</text><line x1="610.0" y1="62" x2="610.0" y2="382" stroke="#e2e8f0"/><text x="662.5" y="50" font-size="10" fill="#64748b" text-anchor="middle">9</text><line x1="662.5" y1="62" x2="662.5" y2="382" stroke="#e2e8f0"/><text x="715.0" y="50" font-size="10" fill="#64748b" text-anchor="middle">10</text><line x1="715.0" y1="62" x2="715.0" y2="382" stroke="#e2e8f0"/><text x="767.5" y="50" font-size="10" fill="#64748b" text-anchor="middle">11</text><line x1="767.5" y1="62" x2="767.5" y2="382" stroke="#e2e8f0"/><text x="820.0" y="50" font-size="10" fill="#64748b" text-anchor="middle">12</text><line x1="820.0" y1="62" x2="820.0" y2="382" stroke="#e2e8f0"/><text x="48" y="108" font-size="13" font-weight="700" fill="#64748b">Core</text><text x="48" y="186" font-size="13" font-weight="700" fill="#64748b">Rendering</text><text x="48" y="264" font-size="13" font-weight="700" fill="#64748b">QA</text><text x="48" y="342" font-size="13" font-weight="700" fill="#64748b">Release</text><rect x="242.5" y="86.0" width="52.5" height="36" rx="10" fill="#dbeafe" stroke="#2563eb"/><text x="268.8" y="109.0" text-anchor="middle" font-size="11" fill="#0f172a"><tspan x="268.8" dy="0.0">Schema</tspan></text><rect x="295.0" y="86.0" width="105.0" height="36" rx="10" fill="#dbeafe" stroke="#2563eb"/><text x="347.5" y="109.0" text-anchor="middle" font-size="11" fill="#0f172a"><tspan x="347.5" dy="0.0">Tokenizer</tspan></text><rect x="347.5" y="86.0" width="105.0" height="36" rx="10" fill="#dbeafe" stroke="#2563eb"/><text x="400.0" y="109.0" text-anchor="middle" font-size="11" fill="#0f172a"><tspan x="400.0" dy="0.0">Reducer</tspan></text><rect x="452.5" y="86.0" width="52.5" height="36" rx="10" fill="#dbeafe" stroke="#2563eb"/><text x="478.8" y="109.0" text-anchor="middle" font-size="11" fill="#0f172a"><tspan x="478.8" dy="0.0">DVM</tspan></text><rect x="400.0" y="164.0" width="105.0" height="36" rx="10" fill="#dbeafe" stroke="#2563eb"/><text x="452.5" y="187.0" text-anchor="middle" font-size="11" fill="#0f172a"><tspan x="452.5" dy="0.0">D2 target</tspan></text><rect x="452.5" y="164.0" width="105.0" height="36" rx="10" fill="#dbeafe" stroke="#2563eb"/><text x="505.0" y="187.0" text-anchor="middle" font-size="11" fill="#0f172a"><tspan x="505.0" dy="0.0">Design tokens</tspan></text><rect x="557.5" y="164.0" width="105.0" height="36" rx="10" fill="#dbeafe" stroke="#2563eb"/><text x="610.0" y="187.0" text-anchor="middle" font-size="11" fill="#0f172a"><tspan x="610.0" dy="0.0">Single SVG</tspan></text><rect x="505.0" y="242.0" width="105.0" height="36" rx="10" fill="#dbeafe" stroke="#2563eb"/><text x="557.5" y="265.0" text-anchor="middle" font-size="11" fill="#0f172a"><tspan x="557.5" dy="0.0">Graphviz dense</tspan></text><rect x="610.0" y="242.0" width="105.0" height="36" rx="10" fill="#dbeafe" stroke="#2563eb"/><text x="662.5" y="265.0" text-anchor="middle" font-size="11" fill="#0f172a"><tspan x="662.5" dy="0.0">ELK nested</tspan></text><rect x="662.5" y="242.0" width="105.0" height="36" rx="10" fill="#dbeafe" stroke="#2563eb"/><text x="715.0" y="265.0" text-anchor="middle" font-size="11" fill="#0f172a"><tspan x="715.0" dy="0.0">Proof gate</tspan></text><rect x="715.0" y="320.0" width="52.5" height="36" rx="10" fill="#dbeafe" stroke="#2563eb"/><text x="741.2" y="343.0" text-anchor="middle" font-size="11" fill="#0f172a"><tspan x="741.2" dy="0.0">Preview only</tspan></text><rect x="767.5" y="320.0" width="52.5" height="36" rx="10" fill="#dbeafe" stroke="#2563eb"/><text x="793.8" y="343.0" text-anchor="middle" font-size="11" fill="#0f172a"><tspan x="793.8" dy="0.0">Publish SVG</tspan></text>
</svg>
