<svg xmlns="http://www.w3.org/2000/svg" width="832" height="328" viewBox="0 0 832 328" data-generated-from="jsonl" data-authority="events.jsonl">
<defs><marker id="arrow" viewBox="0 0 10 10" refX="9" refY="5" markerWidth="7" markerHeight="7" orient="auto-start-reverse"><path d="M 0 0 L 10 5 L 0 10 z" fill="#334155"/></marker></defs>
<metadata id="jsonl-diagram-provenance">{&quot;authority&quot;: &quot;events.jsonl&quot;, &quot;diagramId&quot;: &quot;bpmn&quot;, &quot;diagramKind&quot;: &quot;bpmn&quot;, &quot;dvmSha256&quot;: &quot;25d1d9ec927b1e5a7409d499d25ca8773971a795998056cf00b89f8b1ab2332e&quot;, &quot;edgeIds&quot;: [&quot;b0&quot;, &quot;b1&quot;, &quot;b2&quot;, &quot;b3&quot;, &quot;b4&quot;, &quot;b5&quot;, &quot;b6&quot;], &quot;eventsSha256&quot;: &quot;c86b94aab79bb70784fa6c5748cfbf8346ee20c1873325763faeabaee54e067e&quot;, &quot;generatedFrom&quot;: &quot;jsonl&quot;, &quot;groupIds&quot;: [], &quot;nodeIds&quot;: [&quot;start&quot;, &quot;review&quot;, &quot;gateway&quot;, &quot;repair&quot;, &quot;approve&quot;, &quot;pay&quot;, &quot;end&quot;], &quot;schema&quot;: &quot;SvgProvenance.v1&quot;}</metadata>
<rect width="100%" height="100%" fill="#f8fafc"/>
<text x="38" y="36" font-size="20" font-weight="800" fill="#0f172a">BPMN-like: Claim Approval</text>
<text x="38" y="58" font-size="11" fill="#64748b">generated from JSONL · artifact is not authority</text>
<line x1="133.0" y1="124.0" x2="319.0" y2="124.0" stroke="#334155" stroke-width="1.4" marker-end="url(#arrow)"/><line x1="319.0" y1="124.0" x2="505.0" y2="124.0" stroke="#334155" stroke-width="1.4" marker-end="url(#arrow)"/><line x1="505.0" y1="124.0" x2="691.0" y2="124.0" stroke="#334155" stroke-width="1.4" marker-end="url(#arrow)"/><text x="598.0" y="118.0" text-anchor="middle" font-size="10" fill="#64748b">no</text><line x1="691.0" y1="124.0" x2="319.0" y2="124.0" stroke="#334155" stroke-width="1.4" marker-end="url(#arrow)"/><text x="505.0" y="118.0" text-anchor="middle" font-size="10" fill="#64748b">resubmit</text><line x1="505.0" y1="124.0" x2="133.0" y2="228.0" stroke="#334155" stroke-width="1.4" marker-end="url(#arrow)"/><text x="319.0" y="170.0" text-anchor="middle" font-size="10" fill="#64748b">yes</text><line x1="133.0" y1="228.0" x2="319.0" y2="228.0" stroke="#334155" stroke-width="1.4" marker-end="url(#arrow)"/><line x1="319.0" y1="228.0" x2="505.0" y2="228.0" stroke="#334155" stroke-width="1.4" marker-end="url(#arrow)"/><circle cx="133.0" cy="124.0" r="24.0" fill="#ffffff" stroke="#334155" stroke-width="1.6"/><text x="133.0" y="128.0" text-anchor="middle" font-size="12" fill="#0f172a"><tspan x="133.0" dy="0.0">Submit claim</tspan></text><rect x="250.0" y="96.0" width="138.0" height="56.0" rx="14" fill="#ffffff" stroke="#334155" stroke-width="1.4"/><text x="319.0" y="128.0" text-anchor="middle" font-size="12" fill="#0f172a"><tspan x="319.0" dy="0.0">Review</tspan></text><polygon points="505.0,96.0 574.0,124.0 505.0,152.0 436.0,124.0" fill="#fff7ed" stroke="#f59e0b" stroke-width="1.6"/><text x="505.0" y="128.0" text-anchor="middle" font-size="12" fill="#0f172a"><tspan x="505.0" dy="0.0">Valid?</tspan></text><rect x="622.0" y="96.0" width="138.0" height="56.0" rx="14" fill="#ffffff" stroke="#334155" stroke-width="1.4"/><text x="691.0" y="128.0" text-anchor="middle" font-size="12" fill="#0f172a"><tspan x="691.0" dy="0.0">Request fix</tspan></text><rect x="64.0" y="200.0" width="138.0" height="56.0" rx="14" fill="#ffffff" stroke="#334155" stroke-width="1.4"/><text x="133.0" y="232.0" text-anchor="middle" font-size="12" fill="#0f172a"><tspan x="133.0" dy="0.0">Approve</tspan></text><rect x="250.0" y="200.0" width="138.0" height="56.0" rx="14" fill="#ffffff" stroke="#334155" stroke-width="1.4"/><text x="319.0" y="232.0" text-anchor="middle" font-size="12" fill="#0f172a"><tspan x="319.0" dy="0.0">Pay</tspan></text><circle cx="505.0" cy="228.0" r="24.0" fill="#ffffff" stroke="#334155" stroke-width="1.6"/><text x="505.0" y="232.0" text-anchor="middle" font-size="12" fill="#0f172a"><tspan x="505.0" dy="0.0">Closed</tspan></text>
</svg>
