<svg xmlns="http://www.w3.org/2000/svg" width="1678" height="430" viewBox="0 0 1678 430" data-generated-from="jsonl" data-authority="events.jsonl">
<defs><marker id="arrow" viewBox="0 0 10 10" refX="9" refY="5" markerWidth="7" markerHeight="7" orient="auto-start-reverse"><path d="M 0 0 L 10 5 L 0 10 z" fill="#334155"/></marker></defs>
<metadata id="jsonl-diagram-provenance">{&quot;authority&quot;: &quot;events.jsonl&quot;, &quot;diagramId&quot;: &quot;architecture&quot;, &quot;diagramKind&quot;: &quot;architecture&quot;, &quot;dvmSha256&quot;: &quot;9bd5a284c7ca07541dd824546d4743cd16c640de6c93f50bf297f7c05c1a1688&quot;, &quot;edgeIds&quot;: [&quot;a0&quot;, &quot;a1&quot;, &quot;a2&quot;, &quot;a3&quot;, &quot;a4&quot;, &quot;a5&quot;, &quot;a6&quot;, &quot;a7&quot;, &quot;a8&quot;, &quot;a9&quot;, &quot;a10&quot;], &quot;eventsSha256&quot;: &quot;89c9aa6f86e7b8f475fab4764ebaa884950bf2b5a041054e11c914329438415e&quot;, &quot;generatedFrom&quot;: &quot;jsonl&quot;, &quot;groupIds&quot;: [&quot;input&quot;, &quot;core&quot;, &quot;adapters&quot;, &quot;artifact&quot;], &quot;nodeIds&quot;: [&quot;events&quot;, &quot;schema&quot;, &quot;tokenizer&quot;, &quot;reducer&quot;, &quot;dvm&quot;, &quot;d2&quot;, &quot;gv&quot;, &quot;elk&quot;, &quot;renderer&quot;, &quot;proof&quot;], &quot;schema&quot;: &quot;SvgProvenance.v1&quot;}</metadata>
<rect width="100%" height="100%" fill="#f8fafc"/>
<text x="38" y="36" font-size="20" font-weight="800" fill="#0f172a">Architecture: JSONL Diagram Factory</text>
<text x="38" y="58" font-size="11" fill="#64748b">generated from JSONL · artifact is not authority</text>
<line x1="126.0" y1="144.0" x2="328.0" y2="144.0" stroke="#334155" stroke-width="1.4" marker-end="url(#arrow)"/><text x="227.0" y="138.0" text-anchor="middle" font-size="10" fill="#64748b">validate</text><line x1="328.0" y1="144.0" x2="530.0" y2="144.0" stroke="#334155" stroke-width="1.4" marker-end="url(#arrow)"/><text x="429.0" y="138.0" text-anchor="middle" font-size="10" fill="#64748b">tokens</text><line x1="530.0" y1="144.0" x2="732.0" y2="144.0" stroke="#334155" stroke-width="1.4" marker-end="url(#arrow)"/><text x="631.0" y="138.0" text-anchor="middle" font-size="10" fill="#64748b">stream</text><line x1="732.0" y1="144.0" x2="934.0" y2="144.0" stroke="#334155" stroke-width="1.4" marker-end="url(#arrow)"/><text x="833.0" y="138.0" text-anchor="middle" font-size="10" fill="#64748b">current</text><line x1="934.0" y1="144.0" x2="1136.0" y2="329.0" stroke="#334155" stroke-width="1.4" marker-end="url(#arrow)"/><text x="1035.0" y="230.5" text-anchor="middle" font-size="10" fill="#64748b">compile</text><line x1="934.0" y1="144.0" x2="1136.0" y2="229.0" stroke="#334155" stroke-width="1.4" marker-end="url(#arrow)"/><text x="1035.0" y="180.5" text-anchor="middle" font-size="10" fill="#64748b">dense</text><line x1="934.0" y1="144.0" x2="1136.0" y2="129.0" stroke="#334155" stroke-width="1.4" marker-end="url(#arrow)"/><text x="1035.0" y="130.5" text-anchor="middle" font-size="10" fill="#64748b">complex</text><line x1="1136.0" y1="329.0" x2="1338.0" y2="229.0" stroke="#334155" stroke-width="1.4" marker-end="url(#arrow)"/><text x="1237.0" y="273.0" text-anchor="middle" font-size="10" fill="#64748b">target</text><line x1="1136.0" y1="229.0" x2="1338.0" y2="229.0" stroke="#334155" stroke-width="1.4" marker-end="url(#arrow)"/><text x="1237.0" y="223.0" text-anchor="middle" font-size="10" fill="#64748b">coords</text><line x1="1136.0" y1="129.0" x2="1338.0" y2="229.0" stroke="#334155" stroke-width="1.4" marker-end="url(#arrow)"/><text x="1237.0" y="173.0" text-anchor="middle" font-size="10" fill="#64748b">coords</text><line x1="1338.0" y1="229.0" x2="1540.0" y2="229.0" stroke="#334155" stroke-width="1.4" marker-end="url(#arrow)"/><text x="1439.0" y="223.0" text-anchor="middle" font-size="10" fill="#64748b">hash</text><rect x="60.0" y="115.0" width="132.0" height="58.0" rx="14" fill="#eef2ff" stroke="#334155" stroke-width="1.4"/><text x="126.0" y="148.0" text-anchor="middle" font-size="12" fill="#0f172a"><tspan x="126.0" dy="0.0">events.jsonl</tspan></text><rect x="262.0" y="115.0" width="132.0" height="58.0" rx="14" fill="#eef2ff" stroke="#334155" stroke-width="1.4"/><text x="328.0" y="148.0" text-anchor="middle" font-size="12" fill="#0f172a"><tspan x="328.0" dy="0.0">schema gate</tspan></text><rect x="464.0" y="115.0" width="132.0" height="58.0" rx="14" fill="#eef2ff" stroke="#334155" stroke-width="1.4"/><text x="530.0" y="148.0" text-anchor="middle" font-size="12" fill="#0f172a"><tspan x="530.0" dy="0.0">tokenizer</tspan></text><rect x="666.0" y="115.0" width="132.0" height="58.0" rx="14" fill="#eef2ff" stroke="#334155" stroke-width="1.4"/><text x="732.0" y="148.0" text-anchor="middle" font-size="12" fill="#0f172a"><tspan x="732.0" dy="0.0">reducer</tspan></text><rect x="868.0" y="115.0" width="132.0" height="58.0" rx="14" fill="#eef2ff" stroke="#334155" stroke-width="1.4"/><text x="934.0" y="148.0" text-anchor="middle" font-size="12" fill="#0f172a"><tspan x="934.0" dy="0.0">DiagramViewModel</tspan></text><rect x="1070.0" y="300.0" width="132.0" height="58.0" rx="14" fill="#eef2ff" stroke="#334155" stroke-width="1.4"/><text x="1136.0" y="333.0" text-anchor="middle" font-size="12" fill="#0f172a"><tspan x="1136.0" dy="0.0">D2 target</tspan></text><rect x="1070.0" y="200.0" width="132.0" height="58.0" rx="14" fill="#eef2ff" stroke="#334155" stroke-width="1.4"/><text x="1136.0" y="233.0" text-anchor="middle" font-size="12" fill="#0f172a"><tspan x="1136.0" dy="0.0">Graphviz layout</tspan></text><rect x="1070.0" y="100.0" width="132.0" height="58.0" rx="14" fill="#eef2ff" stroke="#334155" stroke-width="1.4"/><text x="1136.0" y="133.0" text-anchor="middle" font-size="12" fill="#0f172a"><tspan x="1136.0" dy="0.0">ELK layout</tspan></text><rect x="1272.0" y="200.0" width="132.0" height="58.0" rx="14" fill="#eef2ff" stroke="#334155" stroke-width="1.4"/><text x="1338.0" y="233.0" text-anchor="middle" font-size="12" fill="#0f172a"><tspan x="1338.0" dy="-7.0">single SVG</tspan><tspan x="1338.0" dy="14.0">renderer</tspan></text><rect x="1474.0" y="200.0" width="132.0" height="58.0" rx="14" fill="#eef2ff" stroke="#334155" stroke-width="1.4"/><text x="1540.0" y="233.0" text-anchor="middle" font-size="12" fill="#0f172a"><tspan x="1540.0" dy="0.0">proof gate</tspan></text>
</svg>
