<svg xmlns="http://www.w3.org/2000/svg" width="980" height="542" viewBox="0 0 980 542" data-generated-from="jsonl" data-authority="events.jsonl">
<defs><marker id="arrow" viewBox="0 0 10 10" refX="9" refY="5" markerWidth="7" markerHeight="7" orient="auto-start-reverse"><path d="M 0 0 L 10 5 L 0 10 z" fill="#334155"/></marker></defs>
<metadata id="jsonl-diagram-provenance">{&quot;authority&quot;: &quot;events.jsonl&quot;, &quot;diagramId&quot;: &quot;swimlane&quot;, &quot;diagramKind&quot;: &quot;swimlane&quot;, &quot;dvmSha256&quot;: &quot;4cc62d6803cf517844a77d71acc76c0fcc27c61ac05db77bbffe6e1d478110c7&quot;, &quot;edgeIds&quot;: [&quot;s0&quot;, &quot;s1&quot;, &quot;s2&quot;, &quot;s3&quot;, &quot;s4&quot;, &quot;s5&quot;], &quot;eventsSha256&quot;: &quot;44d91eb149d66e2569c061a65d4e3f03503b7b65e165f8c81682d3f892c4f60e&quot;, &quot;generatedFrom&quot;: &quot;jsonl&quot;, &quot;groupIds&quot;: [&quot;agent&quot;, &quot;ci&quot;, &quot;owner&quot;, &quot;runtime&quot;], &quot;nodeIds&quot;: [&quot;draft&quot;, &quot;normalize&quot;, &quot;check&quot;, &quot;render&quot;, &quot;review&quot;, &quot;merge&quot;, &quot;release&quot;], &quot;schema&quot;: &quot;SvgProvenance.v1&quot;}</metadata>
<rect width="100%" height="100%" fill="#f8fafc"/>
<text x="38" y="36" font-size="20" font-weight="800" fill="#0f172a">Swimlane: Proposal → Diagram Release</text>
<text x="38" y="58" font-size="11" fill="#64748b">generated from JSONL · artifact is not authority</text>
<rect x="38" y="70" width="900" height="98" rx="12" fill="#ffffff" stroke="#cbd5e1"/><text x="60" y="98" font-size="13" font-weight="700" fill="#64748b">Agent</text><rect x="38" y="178" width="900" height="98" rx="12" fill="#ffffff" stroke="#cbd5e1"/><text x="60" y="206" font-size="13" font-weight="700" fill="#64748b">CI / Gate</text><rect x="38" y="286" width="900" height="98" rx="12" fill="#ffffff" stroke="#cbd5e1"/><text x="60" y="314" font-size="13" font-weight="700" fill="#64748b">Owner</text><rect x="38" y="394" width="900" height="98" rx="12" fill="#ffffff" stroke="#cbd5e1"/><text x="60" y="422" font-size="13" font-weight="700" fill="#64748b">Runtime</text><line x1="275.0" y1="121.0" x2="445.0" y2="121.0" stroke="#334155" stroke-width="1.4" marker-end="url(#arrow)"/><line x1="445.0" y1="121.0" x2="275.0" y2="229.0" stroke="#334155" stroke-width="1.4" marker-end="url(#arrow)"/><line x1="275.0" y1="229.0" x2="275.0" y2="445.0" stroke="#334155" stroke-width="1.4" marker-end="url(#arrow)"/><text x="275.0" y="331.0" text-anchor="middle" font-size="10" fill="#64748b">green</text><line x1="275.0" y1="445.0" x2="275.0" y2="337.0" stroke="#334155" stroke-width="1.4" marker-end="url(#arrow)"/><line x1="275.0" y1="337.0" x2="445.0" y2="337.0" stroke="#334155" stroke-width="1.4" marker-end="url(#arrow)"/><text x="360.0" y="331.0" text-anchor="middle" font-size="10" fill="#64748b">ok</text><line x1="445.0" y1="337.0" x2="445.0" y2="445.0" stroke="#334155" stroke-width="1.4" marker-end="url(#arrow)"/><rect x="210.0" y="96.0" width="130.0" height="50.0" rx="14" fill="#ffffff" stroke="#334155" stroke-width="1.4"/><text x="275.0" y="125.0" text-anchor="middle" font-size="12" fill="#0f172a"><tspan x="275.0" dy="-7.0">Append proposal</tspan><tspan x="275.0" dy="14.0">events</tspan></text><rect x="380.0" y="96.0" width="130.0" height="50.0" rx="14" fill="#ffffff" stroke="#334155" stroke-width="1.4"/><text x="445.0" y="125.0" text-anchor="middle" font-size="12" fill="#0f172a"><tspan x="445.0" dy="-7.0">Normalize diagram</tspan><tspan x="445.0" dy="14.0">tokens</tspan></text><rect x="210.0" y="204.0" width="130.0" height="50.0" rx="14" fill="#ffffff" stroke="#334155" stroke-width="1.4"/><text x="275.0" y="233.0" text-anchor="middle" font-size="12" fill="#0f172a"><tspan x="275.0" dy="-7.0">Schema + proof</tspan><tspan x="275.0" dy="14.0">check</tspan></text><rect x="210.0" y="420.0" width="130.0" height="50.0" rx="14" fill="#ffffff" stroke="#334155" stroke-width="1.4"/><text x="275.0" y="449.0" text-anchor="middle" font-size="12" fill="#0f172a"><tspan x="275.0" dy="0.0">Build SVG artifact</tspan></text><rect x="210.0" y="312.0" width="130.0" height="50.0" rx="14" fill="#ffffff" stroke="#334155" stroke-width="1.4"/><text x="275.0" y="341.0" text-anchor="middle" font-size="12" fill="#0f172a"><tspan x="275.0" dy="0.0">Review SVG preview</tspan></text><rect x="380.0" y="312.0" width="130.0" height="50.0" rx="14" fill="#ffffff" stroke="#334155" stroke-width="1.4"/><text x="445.0" y="341.0" text-anchor="middle" font-size="12" fill="#0f172a"><tspan x="445.0" dy="0.0">Approve merge</tspan></text><rect x="380.0" y="420.0" width="130.0" height="50.0" rx="14" fill="#ffffff" stroke="#334155" stroke-width="1.4"/><text x="445.0" y="449.0" text-anchor="middle" font-size="12" fill="#0f172a"><tspan x="445.0" dy="-7.0">Publish generated</tspan><tspan x="445.0" dy="14.0">SVG</tspan></text>
</svg>
